# xmcd
#
# Track frame offsets: 
#        150
#        13037
#        24907
#        35751
#        47448
#        59053
#        72128
#        82026
#        95789
#        108942
#        122778
#        133143
#
# Disc length: 1988 seconds
#
# Revision: 3
# Processed by: cddbd v1.5.2PL0 Copyright (c) Steve Scherf et al.
# Submitted via: ExactAudioCopyFreeDBPlugin 1.0
#
DISCID=a607c20c
DTITLE=Dolly Parton - Tammy Wynette - Loretta Lynn - 1993 - Honky Tonk
DTITLE=Angels
DYEAR=1993
DGENRE=Country
TTITLE0=It Wasn't God Who Made Honky Tonk Angels (with Kitty Wells)
TTITLE1=Put It Off Until Tomorrow
TTITLE2=Silver Threads And Golden Needles
TTITLE3=Please Help Me I'm Falling (In Love With You)
TTITLE4=Sittin' On The Front Porch Swing
TTITLE5=Wings Of A Dove
TTITLE6=I Forgot More Than You'll Ever Know
TTITLE7=Wouldn't It Be Great
TTITLE8=That's The Way It Should Have Been
TTITLE9=Let Her Fly
TTITLE10=Lovesick Blues (with Patsy Cline)
TTITLE11=I Dreamed Of A Hillbilly Heaven
EXTD=
EXTT0=
EXTT1=
EXTT2=
EXTT3=
EXTT4=
EXTT5=
EXTT6=
EXTT7=
EXTT8=
EXTT9=
EXTT10=
EXTT11=
PLAYORDER=
